<svg width="73" height="31" viewBox="0 0 73 31" fill="none" xmlns="http://www.w3.org/2000/svg">
	<path d="M0.382812 8.8315H7.48355V25.0331H10.5359C17.385 25.0331 20.8081 21.7054 20.8055 15.0499C20.8055 8.53044 17.6273 5.27189 11.2709 5.27428H9.98862V0L10.9054 0C16.3729 0 20.6207 1.31201 23.649 3.93603C26.6772 6.56004 28.19 10.2134 28.1873 14.8961C28.1873 19.8817 26.6197 23.6985 23.4843 26.3463C20.349 28.9942 15.8106 30.3265 9.8692 30.3432H0.382812V8.8315Z" fill="#00C65E" />
	<path d="M7.48757 0H0.382812V6.32985H7.48757V0Z" fill="#00C65E" />
	<path
		d="M34.9795 12.3477H32.5449V21.1719H34.9795V12.3477ZM35.1553 9.83398C35.1553 9.42969 35.0234 9.0957 34.7686 8.84961C34.5049 8.60352 34.1533 8.48047 33.7139 8.48047C33.3096 8.48047 32.9844 8.60352 32.7383 8.84961C32.4922 9.0957 32.3691 9.42969 32.3691 9.83398C32.3691 10.2383 32.4834 10.5635 32.7295 10.8096C32.9756 11.0557 33.3008 11.1787 33.7139 11.1787C34.1533 11.1787 34.5049 11.0557 34.7686 10.8096C35.0234 10.5635 35.1553 10.2383 35.1553 9.83398ZM39.9365 8.56836H37.502V21.1719H39.9365V8.56836ZM44.4365 21.708C44.1465 22.376 43.6367 22.7012 42.9072 22.7012C42.5469 22.7012 42.248 22.6484 42.0107 22.5254V24.6787L42.1865 24.7402C42.3096 24.793 42.4941 24.8369 42.7578 24.8809C43.0127 24.9336 43.2764 24.9512 43.54 24.9512C45.0166 24.9512 46.1504 23.8701 46.959 21.708L50.4658 12.3477H47.9521L45.8779 18.2012L43.8125 12.3477H41.29L44.709 21.084L44.4365 21.708ZM50.3604 20.0029C50.3604 20.3633 50.501 20.6797 50.7822 20.9434C51.0635 21.2158 51.3975 21.3477 51.8018 21.3477C52.1973 21.3477 52.54 21.2158 52.8213 20.9434C53.1025 20.6797 53.2432 20.3633 53.2432 20.0029C53.2432 19.6426 53.1025 19.3262 52.8213 19.0537C52.54 18.79 52.1973 18.6494 51.8018 18.6494C51.3975 18.6494 51.0635 18.79 50.7822 19.0537C50.501 19.3262 50.3604 19.6426 50.3604 20.0029ZM60.4414 12.2598H60.0811C59.5977 12.2598 59.1406 12.374 58.7012 12.585C58.2617 12.8047 57.9805 12.9805 57.8486 13.1123C57.7256 13.2441 57.6201 13.3496 57.5498 13.4287V12.3477H55.124V21.1719H57.5498V16.9443C57.5498 16.1885 57.7432 15.6084 58.1123 15.2041C58.4814 14.7998 58.9912 14.5977 59.624 14.5977C59.9844 14.6064 60.2568 14.6416 60.4326 14.7031L60.4414 12.2598ZM67.7363 21.1719H70.1621V12.3477H67.7363V17.0322C67.7363 17.7002 67.5693 18.21 67.2441 18.5615C66.9189 18.9219 66.4795 19.0977 65.9346 19.0977C65.4424 19.0977 65.0293 18.9395 64.7041 18.6143C64.3789 18.2979 64.2207 17.8848 64.2207 17.3926V12.3477H61.7949V17.6299C61.7949 18.7549 62.1113 19.6602 62.7441 20.3369C63.377 21.0137 64.2031 21.3477 65.2139 21.3477C65.6885 21.3477 66.1455 21.251 66.585 21.0576C67.0244 20.8643 67.3057 20.7061 67.4375 20.583C67.5605 20.46 67.666 20.3633 67.7363 20.2754V21.1719Z"
		fill="#00C65E"
	/>
</svg>
