<svg xmlns="http://www.w3.org/2000/svg" width="181" height="171" viewBox="0 0 181 171" fill="none">
	<g clip-path="url(#clip0_1357_18863)">
		<path opacity="0.7" d="M65.0366 162.673C51.6138 171.552 33.4412 164.554 29.4413 148.965L15.3969 94.229C10.6679 75.7988 28.7326 59.7238 46.4887 66.5617L107.663 90.1199C125.419 96.9578 128.035 120.997 112.166 131.495L65.0366 162.673Z" fill="#00C65E" />
		<path d="M164.069 40.2538C172.897 44.8356 174.577 56.7528 167.359 63.5965L142.017 87.6257C133.483 95.7166 119.374 90.7895 117.733 79.1455L112.078 39.0288C110.437 27.3848 122.634 18.7496 133.071 24.1664L164.069 40.2538Z" fill="#F89358" />
		<path
			d="M101.526 1.34541L106.429 1.19529L111.332 1.07801L121.138 0.848133C127.676 0.726159 134.215 0.608877 140.75 0.533816L143.203 0.500977C143.598 0.500977 144.064 0.500976 144.497 0.533816C144.93 0.566655 145.377 0.632333 145.809 0.716777C147.554 1.08751 149.172 1.89536 150.508 3.06244C151.172 3.64388 151.764 4.30051 152.272 5.01871C152.766 5.75005 153.169 6.53766 153.471 7.36437C153.623 7.77669 153.749 8.1982 153.846 8.62634C153.937 9.05325 154.008 9.48954 154.056 9.92583C154.122 10.8313 154.108 11.61 154.117 12.4169L154.17 31.7686L154.117 51.1156C154.117 51.9366 154.117 52.6872 154.065 53.602C154.041 54.0383 153.941 54.4699 153.88 54.9062L153.708 55.5442L153.623 55.8632L153.509 56.1728L153.276 56.7921L152.986 57.3832C152.789 57.777 152.567 58.1578 152.32 58.5232C151.82 59.2494 151.229 59.9099 150.56 60.4888C149.226 61.6631 147.602 62.4718 145.852 62.8345C145.416 62.9138 144.977 62.9702 144.535 63.0034C144.088 63.0034 143.646 63.0409 143.246 63.0315H140.797C134.26 62.9784 127.721 62.9017 121.18 62.8017L111.374 62.6093L106.471 62.5155L101.568 62.3325L106.471 62.1777L111.374 62.0604L121.18 61.8306C127.721 61.7023 134.258 61.5976 140.792 61.5162L143.246 61.4834C143.669 61.4834 144.04 61.4553 144.411 61.4318C144.783 61.3958 145.153 61.341 145.519 61.2676C146.982 60.9413 148.335 60.2481 149.447 59.255C150.002 58.7603 150.493 58.1993 150.907 57.5849C151.106 57.2743 151.287 56.9533 151.45 56.6232L151.683 56.1259L151.868 55.6099L151.963 55.3472L152.03 55.0798L152.163 54.5496C152.228 54.1879 152.274 53.823 152.301 53.4566C152.348 52.7622 152.301 51.899 152.301 51.1109L152.248 31.7639L152.301 12.4122C152.301 11.61 152.325 10.775 152.301 10.0666C152.267 9.70139 152.215 9.33813 152.144 8.97819C152.066 8.61705 151.964 8.26131 151.839 7.91326C151.364 6.50986 150.522 5.25445 149.4 4.2728C148.287 3.275 146.933 2.57559 145.467 2.24145C145.106 2.1617 144.735 2.10541 144.359 2.05849C143.983 2.01158 143.631 1.99751 143.208 2.00689H140.754C134.215 1.95998 127.676 1.87084 121.142 1.77701L111.332 1.58936L106.429 1.49084L101.526 1.34541Z"
			fill="#0FC645"
		/>
		<path d="M143.05 62.2348L100.873 62.3239C99.604 62.3264 98.3475 62.082 97.1749 61.6047C96.0023 61.1274 94.9367 60.4265 94.039 59.5423C93.1414 58.6581 92.4294 57.6079 91.9438 56.4519C91.4582 55.2958 91.2086 54.0566 91.2092 52.8053V11.3481C91.2055 8.82518 92.2171 6.404 94.0219 4.61653C95.8267 2.82906 98.2771 1.82153 100.834 1.81531L142.855 1.74025C144.123 1.73779 145.38 1.98217 146.553 2.45943C147.726 2.93668 148.792 3.63743 149.69 4.52157C150.588 5.40571 151.3 6.45587 151.786 7.61195C152.272 8.76804 152.523 10.0073 152.523 11.2589V52.8662C152.519 55.3457 151.52 57.723 149.745 59.4784C147.97 61.2339 145.563 62.2249 143.05 62.2348Z" fill="white" />
		<path d="M132.683 74.0939C131.872 73.912 131.148 73.4638 130.63 72.8228C130.111 72.1818 129.829 71.386 129.829 70.566V66.0389C129.829 65.0796 130.216 64.1596 130.903 63.4813C131.591 62.803 132.523 62.4219 133.496 62.4219L110.236 62.4782C111.209 62.4782 112.141 62.8592 112.829 63.5376C113.517 64.2159 113.903 65.1359 113.903 66.0952V70.627C113.931 71.8327 112.723 73.5778 111.111 74.0939H101.03V79.2215H142.703V74.0939H132.683Z" fill="#0FC645" />
		<path d="M138.743 32.1015H87.692C85.5472 32.1015 82.8841 30.3329 83.8115 28.2734L91.5535 15.1611H152.891L145.149 28.2968C142.947 31.637 140.888 32.1015 138.743 32.1015Z" fill="#0FC645" />
		<path d="M138.741 32.7244H87.6897C86.8674 32.7211 86.0572 32.5296 85.3227 32.1649C84.5883 31.8002 83.9497 31.2722 83.4572 30.6227C83.1952 30.2447 83.0366 29.8065 82.9966 29.3504C82.9566 28.8942 83.0366 28.4357 83.229 28.019L83.2622 27.958L91.185 14.5361H153.958L145.708 28.5866C143.444 32.0254 141.29 32.7244 138.741 32.7244ZM84.3988 28.5538C84.299 28.7769 84.2597 29.0218 84.2847 29.2644C84.3097 29.507 84.3982 29.739 84.5415 29.9377C84.9199 30.4101 85.4008 30.7927 85.949 31.0574C86.4971 31.322 87.0984 31.4621 87.7087 31.4671H138.741C140.538 31.4671 142.474 31.195 144.614 27.9298L151.785 15.784H91.9364L84.3988 28.5538Z" fill="#0FC645" />
		<path d="M125.029 10.6061C126.043 10.6061 126.865 9.79533 126.865 8.79522C126.865 7.79512 126.043 6.98438 125.029 6.98438C124.015 6.98438 123.194 7.79512 123.194 8.79522C123.194 9.79533 124.015 10.6061 125.029 10.6061Z" fill="#0FC645" />
		<path d="M132.676 10.6061C133.69 10.6061 134.511 9.79533 134.511 8.79522C134.511 7.79512 133.69 6.98438 132.676 6.98438C131.662 6.98438 130.84 7.79512 130.84 8.79522C130.84 9.79533 131.662 10.6061 132.676 10.6061Z" fill="#0FC645" />
		<path d="M140.32 10.6061C141.334 10.6061 142.156 9.79533 142.156 8.79522C142.156 7.79512 141.334 6.98438 140.32 6.98438C139.306 6.98438 138.485 7.79512 138.485 8.79522C138.485 9.79533 139.306 10.6061 140.32 10.6061Z" fill="#0FC645" />
		<path d="M105.392 58.34L104.817 57.9084L110.947 49.2061L112.273 50.2053L105.392 58.34Z" fill="#0FC645" />
		<path d="M119.13 47.7938L118.559 47.3669L123.857 39.7529L125.174 40.7428L119.13 47.7938Z" fill="#0FC645" />
		<path d="M103.443 50.2719L102.963 49.9107L112.622 36.7656L113.735 37.6054L103.443 50.2719Z" fill="#0FC645" />
		<path d="M98.7039 41.729L98.3948 41.4992L103.949 33.8945L104.663 34.4293L98.7039 41.729Z" fill="#0FC645" />
		<path d="M116.294 58.0902L116.123 57.9636L119.186 53.7695L119.581 54.0651L116.294 58.0902Z" fill="#0FC645" />
		<path d="M95.9625 50.7926L95.8674 50.7223L97.6032 48.3438L97.8267 48.5126L95.9625 50.7926Z" fill="#0FC645" />
		<path d="M95.0407 32.7279H93.4143L103.42 14.5303H105.046L95.0407 32.7279Z" fill="white" />
		<path d="M104.55 32.7306H102.928L112.929 14.5283L114.541 14.5424L104.55 32.7306Z" fill="white" />
		<path d="M114.035 32.8158L112.451 32.7408L122.447 14.5479H124.069L114.035 32.8158Z" fill="white" />
		<path d="M123.574 32.7631L121.957 32.749L131.967 14.542H133.589L123.574 32.7631Z" fill="white" />
		<path d="M133.12 32.7119H131.498L141.49 14.5283H143.111L133.12 32.7119Z" fill="white" />
		<path d="M137.505 32.5234H129.497V62.4822H137.505V32.5234Z" fill="white" />
		<path d="M137.745 62.7224H129.256V32.3086H137.745V62.7224ZM129.736 62.2533H137.26V32.7777H129.736V62.2533Z" fill="#0FC645" />
		<path fill-rule="evenodd" clip-rule="evenodd" d="M145.915 67.4446C144.134 65.6981 141.965 63.7972 140.793 63.0312C141.734 63.0625 145.326 62.915 145.326 62.915C146.191 63.6132 147.116 64.4204 148.015 65.3022C149.925 67.1738 151.858 69.5129 152.769 71.9638C152.795 72.0341 152.822 72.1062 152.849 72.18C153.871 74.9184 155.772 80.0163 152.766 86.1394C149.729 92.3253 141.871 99.1906 124.242 105.978C119.247 107.901 113.128 111.138 108.289 115.191C103.396 119.289 99.0468 124.616 99.047 129.383L98.3025 123.124C98.793 120.766 101.268 117.158 106.363 112.891C111.511 108.579 117.935 105.191 123.164 103.178C140.579 96.4736 147.545 89.9672 150.073 84.8172C152.506 79.8612 151.005 75.8254 150.011 73.1554C149.993 73.106 149.975 73.057 149.957 73.0086C149.278 71.1808 147.722 69.2153 145.915 67.4446Z" fill="#FFB762" />
		<path d="M93.7822 139.611H40.9741L47.8944 84.8604H86.8619L93.7822 139.611Z" fill="white" />
		<path d="M100.365 139.611H47.5652L54.4855 84.8604H93.4443L100.365 139.611Z" fill="white" />
		<path d="M77.0937 87.6746H57.1699V73.9955C57.2462 71.4392 58.3292 69.0128 60.1891 67.2312C62.049 65.4496 64.5394 64.4531 67.1318 64.4531C69.7243 64.4531 72.2147 65.4496 74.0746 67.2312C75.9345 69.0128 77.0175 71.4392 77.0937 73.9955V87.6746ZM62.1142 82.7971H72.1495V73.9955C72.1775 73.3282 72.0685 72.6622 71.829 72.0375C71.5895 71.4128 71.2244 70.8424 70.7557 70.3604C70.287 69.8785 69.7244 69.495 69.1016 69.233C68.4789 68.9711 67.8088 68.836 67.1318 68.836C66.4548 68.836 65.7848 68.9711 65.162 69.233C64.5393 69.495 63.9766 69.8785 63.5079 70.3604C63.0393 70.8424 62.6742 71.4128 62.4347 72.0375C62.1952 72.6622 62.0861 73.3282 62.1142 73.9955V82.7971Z" fill="white" />
		<path d="M78.2567 88.5295H58.3329V74.8503C58.2937 73.5355 58.5223 72.2262 59.0053 71.0001C59.4883 69.7739 60.2158 68.6559 61.1447 67.7121C62.0737 66.7684 63.1851 66.0181 64.4133 65.5058C65.6415 64.9935 66.9614 64.7295 68.2948 64.7295C69.6283 64.7295 70.9482 64.9935 72.1764 65.5058C73.4045 66.0181 74.516 66.7684 75.4449 67.7121C76.3739 68.6559 77.1014 69.7739 77.5843 71.0001C78.0673 72.2262 78.296 73.5355 78.2567 74.8503V88.5295ZM63.2772 83.652H73.3125V74.8503C73.3405 74.1831 73.2315 73.5171 72.992 72.8924C72.7525 72.2677 72.3874 71.6973 71.9187 71.2153C71.45 70.7334 70.8874 70.3499 70.2646 70.0879C69.6419 69.826 68.9718 69.6909 68.2948 69.6909C67.6178 69.6909 66.9478 69.826 66.325 70.0879C65.7023 70.3499 65.1396 70.7334 64.6709 71.2153C64.2023 71.6973 63.8372 72.2677 63.5977 72.8924C63.3582 73.5171 63.2491 74.1831 63.2772 74.8503V83.652Z" fill="#FFB762" />
		<path d="M98.6549 139.611H93.1843L86.8076 84.8604H92.2783L98.6549 139.611Z" fill="#FFB762" />
	</g>
	<defs>
		<clipPath id="clip0_1357_18863">
			<rect width="181" height="170" fill="white" transform="translate(0 0.500977)" />
		</clipPath>
	</defs>
</svg>
