<?xml version="1.0" standalone="no"?>
<!DOCTYPE svg PUBLIC "-//W3C//DTD SVG 20010904//EN"
 "http://www.w3.org/TR/2001/REC-SVG-20010904/DTD/svg10.dtd">
<svg version="1.0" xmlns="http://www.w3.org/2000/svg"
 width="260.000000pt" height="260.000000pt" viewBox="0 0 260.000000 260.000000"
 preserveAspectRatio="xMidYMid meet">
<metadata>
Created by potrace 1.14, written by Peter Selinger 2001-2017
</metadata>
<g transform="translate(0.000000,260.000000) scale(0.100000,-0.100000)"
fill="#000000" stroke="none">
<path d="M155 2000 c-86 -27 -139 -113 -116 -190 13 -43 77 -100 112 -100 10
0 20 -4 23 -9 3 -4 19 -11 35 -14 29 -6 61 -31 61 -47 0 -18 -44 -50 -69 -50
-24 0 -36 5 -89 38 -19 11 -25 8 -58 -24 -46 -44 -41 -57 39 -98 95 -49 215
-36 279 28 50 51 60 134 22 191 -15 23 -73 55 -134 74 -54 18 -80 39 -73 59
13 36 54 42 105 16 30 -16 31 -15 69 22 44 43 41 52 -25 86 -45 23 -136 32
-181 18z"/>
<path d="M1558 1977 c-93 -46 -146 -124 -152 -221 -4 -77 20 -137 77 -196 148
-151 411 -89 471 112 27 90 5 177 -63 247 -90 93 -218 115 -333 58z m201 -113
c58 -34 82 -123 50 -189 -46 -97 -195 -99 -245 -3 -67 130 70 266 195 192z"/>
<path d="M634 1985 c-6 -5 -50 -111 -97 -235 -47 -124 -88 -233 -92 -242 -6
-16 0 -18 68 -18 l76 0 17 54 17 54 76 0 c42 -1 81 -5 87 -10 6 -4 17 -29 24
-53 l13 -45 73 0 c41 0 74 2 74 4 0 2 -15 43 -34 92 -18 49 -54 143 -79 209
-25 66 -52 138 -61 160 l-16 40 -67 0 c-36 0 -72 -4 -79 -10z m111 -273 c-3
-3 -23 -6 -45 -6 -31 -1 -39 2 -36 14 3 8 13 41 22 73 l18 59 23 -68 c13 -37
21 -70 18 -72z"/>
<path d="M1034 1991 c-2 -2 -4 -116 -4 -253 l0 -248 180 0 180 0 0 60 c0 50
-3 60 -17 61 -10 0 -61 0 -113 0 l-95 -1 1 190 c1 105 -1 190 -5 191 -28 3
-123 3 -127 0z"/>
<path d="M2061 1990 c-5 -3 -10 -116 -10 -252 l-2 -248 70 0 70 0 3 146 3 146
64 -81 c35 -45 67 -81 71 -81 4 0 18 14 31 32 13 17 42 54 64 82 l40 50 3
-147 3 -147 64 0 65 0 0 250 c0 193 -3 250 -12 251 -16 1 -90 1 -99 0 -4 -1
-42 -44 -84 -97 -42 -53 -80 -92 -84 -87 -4 4 -38 47 -75 96 -37 48 -73 87
-79 88 -48 4 -99 4 -106 -1z"/>
<path d="M1700 1098 c-255 -127 -175 -484 112 -502 52 -3 132 19 173 47 132
90 159 262 61 382 -83 101 -229 132 -346 73z m199 -116 c47 -34 64 -68 64
-121 0 -30 -7 -60 -17 -76 -41 -62 -131 -83 -193 -45 -80 48 -88 179 -14 237
43 34 119 36 160 5z"/>
<path d="M63 1107 c-3 -6 -6 -119 -6 -251 l0 -241 69 -3 70 -3 -1 98 0 98 91
0 92 0 -1 -95 -1 -95 70 -3 69 -3 0 251 c0 137 -2 250 -5 251 -30 5 -117 4
-125 -2 -5 -4 -9 -42 -9 -85 1 -43 0 -83 -2 -88 -3 -7 -33 -10 -72 -10 -121 3
-108 -8 -107 94 1 50 -1 90 -4 91 -45 6 -123 3 -128 -4z"/>
<path d="M765 1104 c-7 -7 -17 -25 -23 -41 -6 -15 -46 -124 -90 -240 l-80
-213 73 0 73 0 12 33 c30 81 20 74 111 73 l82 -1 16 -50 16 -50 73 -3 c48 -2
72 1 72 8 0 6 -8 32 -19 58 -39 97 -71 181 -116 302 -26 69 -49 127 -51 129
-10 10 -138 5 -149 -5z m100 -212 c9 -29 15 -55 12 -58 -5 -5 -41 -8 -69 -5
-15 1 -14 7 5 66 12 36 24 62 28 57 4 -4 14 -31 24 -60z"/>
<path d="M1078 1112 c-16 -2 -28 -5 -28 -7 0 -1 17 -32 38 -66 86 -142 141
-256 140 -290 0 -19 0 -58 1 -86 l1 -53 68 0 67 0 0 93 c-1 50 3 97 7 103 23
31 166 299 163 304 -3 5 -100 5 -136 1 -4 -1 -22 -34 -42 -73 -62 -126 -57
-126 -113 -18 l-49 94 -45 0 c-25 1 -57 0 -72 -2z"/>
<path d="M2130 1112 c-6 -2 -10 -30 -10 -63 l0 -59 70 0 70 0 0 -190 0 -190
69 0 69 0 0 163 c0 89 1 174 1 190 1 27 2 27 71 27 l70 0 0 60 c0 41 -4 60
-12 61 -34 3 -389 4 -398 1z"/>
</g>
</svg>
