<svg width="17" height="16" viewBox="0 0 17 16" fill="none" xmlns="http://www.w3.org/2000/svg">
<g clip-path="url(#clip0_1151_192141)">
<path fill-rule="evenodd" clip-rule="evenodd" d="M4.13219 0.501994C4.26375 0.314182 4.52844 0.237619 4.73938 0.328244C4.92563 0.401994 5.05594 0.592307 5.05719 0.792932C5.05947 1.08473 5.05909 1.37662 5.0587 1.6685V1.66851V1.66851V1.66852V1.66852V1.66853V1.66853V1.66854C5.0584 1.89555 5.05811 2.12255 5.05906 2.34949C5.38281 2.35012 5.70625 2.35012 6.03 2.34949C6.03031 1.85824 6.03062 1.36668 6.02969 0.875119C6.02844 0.758244 6.04219 0.636057 6.10625 0.535432C6.23 0.324807 6.51406 0.230432 6.73812 0.329494C6.92375 0.403557 7.0525 0.594182 7.05312 0.794182C7.05547 1.09373 7.05511 1.39327 7.05474 1.69282C7.05447 1.91171 7.05421 2.1306 7.055 2.34949C7.37906 2.35012 7.70312 2.35043 8.02719 2.34949C8.02758 2.13626 8.02743 1.92308 8.02727 1.70993V1.70939V1.70936V1.70934V1.70931V1.70928V1.70926V1.70923V1.7092C8.02706 1.41061 8.02685 1.11209 8.02812 0.813557C8.02625 0.662932 8.08875 0.511682 8.20531 0.414807C8.36 0.277619 8.6 0.250744 8.78094 0.351369C8.94844 0.439182 9.05406 0.624807 9.05 0.813244C9.05142 1.14593 9.05113 1.47862 9.05083 1.81131L9.05083 1.81321C9.05067 1.99176 9.05052 2.17032 9.05062 2.34887C9.30527 2.35059 9.56011 2.35018 9.81483 2.34978L10.0231 2.34949C10.0237 2.09403 10.0236 1.83857 10.0234 1.58307C10.0233 1.32756 10.0231 1.072 10.0238 0.816369C10.0219 0.664494 10.0844 0.511369 10.2025 0.413557C10.3581 0.276994 10.5997 0.250432 10.78 0.353244C10.9469 0.440744 11.0506 0.626057 11.0463 0.813557C11.0473 1.09081 11.0471 1.36816 11.0469 1.64549C11.0468 1.88019 11.0466 2.11487 11.0472 2.34949C11.3713 2.35012 11.695 2.35012 12.0191 2.34949C12.0197 2.10617 12.0195 1.86278 12.0194 1.61938C12.0193 1.35168 12.0192 1.08398 12.02 0.816369C12.0147 0.623869 12.1231 0.433869 12.2966 0.347619C12.5056 0.233557 12.7872 0.295744 12.9319 0.483869C13.0303 0.600744 13.05 0.758869 13.0447 0.906369C13.0434 1.41324 13.0434 1.91981 13.0444 2.42637C13.5509 2.58168 13.9797 2.98449 14.1316 3.49637C14.3905 3.49726 14.6494 3.49691 14.9084 3.49656H14.9085C15.2861 3.49604 15.6637 3.49553 16.0413 3.49887C16.3019 3.49856 16.5269 3.72481 16.5391 3.98293V4.02106C16.5344 4.28668 16.3012 4.52168 16.0341 4.51887C15.4491 4.52098 14.8643 4.52045 14.2795 4.51992L13.6947 4.51949C13.4884 4.52574 13.2853 4.39981 13.2078 4.20762C13.1731 4.13141 13.1696 4.04862 13.1661 3.96593C13.1624 3.87671 13.1586 3.7876 13.1156 3.70699C13.0034 3.48606 12.7487 3.36949 12.5078 3.37387C9.86188 3.37324 7.21594 3.37324 4.56969 3.37418C4.25406 3.35887 3.90031 3.59418 3.9125 3.93574C3.91188 6.64512 3.91188 9.35449 3.9125 12.0639C3.89812 12.4073 4.25438 12.6432 4.57094 12.6276C6.11981 12.6285 7.66869 12.6284 9.21756 12.6282H9.22166C10.3067 12.6281 11.3918 12.628 12.4769 12.6282C12.7131 12.6376 12.9659 12.5407 13.0941 12.3339C13.1693 12.2212 13.1679 12.0851 13.1665 11.9538C13.1662 11.927 13.1659 11.9004 13.1663 11.8742C13.1658 10.8273 13.1659 9.78051 13.1659 8.73371C13.166 7.68692 13.1661 6.64012 13.1656 5.59324C13.1657 5.57312 13.1655 5.55281 13.1654 5.53239C13.1643 5.40381 13.1631 5.27112 13.2262 5.15543C13.3222 4.96637 13.545 4.85543 13.7544 4.88949C13.9481 4.91512 14.1169 5.06449 14.1681 5.25293C14.1933 5.34372 14.1921 5.43805 14.1909 5.53193V5.53194V5.532V5.53206V5.53212V5.53219V5.53225V5.53231C14.1905 5.56303 14.1901 5.5937 14.1906 5.62418L14.1906 7.08942V7.08945V7.08948V7.08951V7.08953V7.08956V7.08959V7.08962C14.1905 8.55322 14.1905 10.0167 14.1909 11.4804C14.4543 11.4814 14.7177 11.4811 14.9812 11.4808H14.9812H14.9813H14.9813H14.9813H14.9813H14.9814H14.9814H14.9817C15.333 11.4805 15.6843 11.4801 16.0356 11.4826C16.3019 11.4811 16.5341 11.7145 16.5391 11.9795V12.0157C16.5278 12.2011 16.415 12.3773 16.2447 12.4545C16.1395 12.5067 16.0211 12.5062 15.9061 12.5058H15.906H15.9059H15.9058H15.9057H15.9057C15.8879 12.5057 15.8703 12.5056 15.8528 12.5057C15.443 12.5051 15.0331 12.5052 14.6232 12.5053L14.1316 12.5054C13.9787 13.0167 13.5513 13.4201 13.0444 13.5745C13.0436 13.8987 13.0438 14.2229 13.044 14.5471C13.0441 14.7498 13.0442 14.9525 13.0441 15.1551C13.0478 15.2982 13.0059 15.447 12.9028 15.5504C12.7525 15.7139 12.4922 15.7589 12.2966 15.6529C12.1225 15.5673 12.0156 15.3767 12.02 15.1845C12.0192 14.917 12.0193 14.6495 12.0194 14.382C12.0195 14.1387 12.0197 13.8955 12.0191 13.6523C11.6953 13.6517 11.3719 13.6517 11.0481 13.6523C11.0476 13.8795 11.0478 14.1067 11.0479 14.3339V14.3339V14.3339V14.3339V14.3339V14.334V14.334V14.334C11.0482 14.6181 11.0484 14.9022 11.0472 15.1864C11.05 15.3657 10.9569 15.5442 10.8009 15.6357C10.5734 15.7832 10.2403 15.7029 10.1019 15.4711C10.0188 15.3467 10.0209 15.1931 10.0229 15.0496L10.0231 15.0301C10.0237 14.5707 10.0234 14.1114 10.0231 13.6523C9.69906 13.6517 9.375 13.6514 9.05094 13.6523C9.0504 13.874 9.05062 14.0957 9.05084 14.3175C9.05113 14.6075 9.05142 14.8974 9.05 15.1873C9.05125 15.3451 8.98281 15.5039 8.85594 15.6001C8.695 15.7307 8.45344 15.747 8.27688 15.6379C8.11969 15.5473 8.02406 15.3682 8.02812 15.1876C8.02684 14.9244 8.02704 14.6611 8.02724 14.3979V14.3976C8.02743 14.1491 8.02763 13.9005 8.02656 13.652L7.74896 13.6519C7.51772 13.6518 7.28644 13.6516 7.055 13.6523C7.05443 13.8862 7.05458 14.1201 7.05473 14.354V14.3543C7.0549 14.6306 7.05508 14.9069 7.05406 15.1832C7.05813 15.3664 6.96187 15.5479 6.80219 15.6395C6.57969 15.7782 6.26094 15.7048 6.11906 15.4854C6.02583 15.355 6.02778 15.1906 6.0296 15.0365L6.03 14.9986C6.03062 14.55 6.03031 14.1015 6.03 13.653V13.6523C5.70625 13.6517 5.38281 13.6517 5.05906 13.6523C5.05811 13.8792 5.0584 14.1061 5.0587 14.3331V14.3332V14.3332V14.3332V14.3332V14.3333V14.3333V14.3333C5.05909 14.6252 5.05947 14.9172 5.05719 15.2092C5.05656 15.4339 4.89031 15.6426 4.67188 15.6948C4.45281 15.7545 4.20344 15.6454 4.09844 15.4445C4.03156 15.3295 4.0325 15.1932 4.03344 15.0645C4.03469 14.5679 4.03437 14.0711 4.03375 13.5745C3.52688 13.4198 3.09938 13.017 2.94656 12.5054C2.6899 12.5047 2.43318 12.505 2.17645 12.5053H2.17644H2.17643H2.17642H2.17642H2.17641H2.1764H2.17639C1.79736 12.5058 1.41831 12.5062 1.03938 12.5032C0.778125 12.5029 0.550313 12.2773 0.539062 12.0179V11.9804C0.543438 11.7148 0.776562 11.4804 1.04375 11.4823C1.39873 11.48 1.75382 11.4803 2.1089 11.4807C2.36835 11.481 2.6278 11.4812 2.88719 11.4804C2.88781 9.16043 2.88781 6.84043 2.88719 4.52043C2.62793 4.51964 2.36861 4.51991 2.10927 4.52017C1.75434 4.52054 1.39936 4.5209 1.04438 4.51856C0.776875 4.52137 0.543438 4.28699 0.539062 4.02106V3.98481C0.55 3.72574 0.776875 3.49731 1.03875 3.49824C1.40972 3.49569 1.78068 3.49612 2.15165 3.49654H2.15182C2.41673 3.49685 2.68165 3.49715 2.94656 3.49637C3.09906 2.98481 3.52719 2.58106 4.03375 2.42637C4.03469 1.90949 4.03437 1.39262 4.03375 0.875744C4.03094 0.745432 4.05031 0.607932 4.13219 0.501994ZM9.59475 5.52654C9.68975 5.39779 9.84787 5.32123 10.0076 5.32217C10.3835 5.32092 10.7595 5.32127 11.1355 5.32162L11.4176 5.32185C11.6004 5.31623 11.7835 5.41248 11.8757 5.57185C12.0141 5.79279 11.9444 6.11154 11.726 6.25435C11.597 6.3491 11.4343 6.34735 11.2808 6.3457L11.2329 6.34529V9.65529L11.2418 9.65509C11.4218 9.65104 11.6227 9.64652 11.7644 9.77654C11.9876 9.95154 12.0088 10.3175 11.8085 10.5178C11.7088 10.6253 11.5632 10.6819 11.4176 10.6797C11.2676 10.6796 11.1176 10.6798 10.9677 10.6801H10.9676H10.9676H10.9676H10.9676H10.9675C10.6402 10.6806 10.3129 10.6811 9.98568 10.6781C9.74818 10.674 9.53162 10.4837 9.49912 10.2484C9.46287 10.0403 9.57162 9.81873 9.75818 9.71998C9.87245 9.65273 10.0059 9.65394 10.1352 9.6551H10.1352C10.1597 9.65532 10.1841 9.65554 10.2082 9.65529C10.2085 8.55185 10.2085 7.44873 10.2082 6.34529L10.1726 6.34576C10.0098 6.34812 9.83465 6.35065 9.701 6.24467C9.47537 6.08779 9.42475 5.74217 9.59475 5.52654ZM6.82263 5.3292C6.62076 5.34857 6.45544 5.50389 6.39044 5.69107L5.42627 8.16357L4.73232 9.94326C4.68951 10.0492 4.66794 10.1676 4.69669 10.2808C4.74076 10.4961 4.94076 10.6661 5.16044 10.6767C5.36919 10.6942 5.58044 10.5664 5.66138 10.3733C5.71766 10.2382 5.77039 10.1016 5.82314 9.96504L5.82315 9.96501C5.86178 9.86497 5.90041 9.76493 5.94044 9.66545C6.19985 9.6657 6.45919 9.66559 6.71853 9.66548H6.71952H6.71953H6.71954H6.71955H6.71955H6.71956C7.08973 9.66532 7.45988 9.66515 7.83013 9.66607C7.86603 9.7548 7.90012 9.84432 7.9342 9.93386C7.99268 10.0875 8.05117 10.2411 8.11888 10.3908C8.23013 10.6333 8.54951 10.7495 8.78951 10.6311C9.02982 10.5254 9.15201 10.222 9.05044 9.97951C8.49107 8.54138 7.93076 7.10357 7.36857 5.6667C7.28951 5.44764 7.05607 5.2942 6.82263 5.3292ZM6.77605 8.64203C6.63072 8.64196 6.4854 8.64188 6.34013 8.64201C6.52044 8.17576 6.70201 7.70982 6.88419 7.2442C7.00833 7.56017 7.13161 7.87657 7.2549 8.19302L7.42982 8.6417C7.21196 8.64226 6.99399 8.64215 6.77605 8.64203ZM0.539062 5.98315C0.54875 5.73471 0.755937 5.51065 1.00656 5.49596C1.17021 5.4888 1.33419 5.48994 1.49818 5.49108C1.60601 5.49183 1.71383 5.49258 1.82156 5.49096C1.84811 5.49128 1.87501 5.491 1.90208 5.49073C2.03627 5.48935 2.17449 5.48794 2.29281 5.55815C2.50719 5.6719 2.61063 5.94971 2.52469 6.17628C2.45531 6.37784 2.25031 6.51846 2.0375 6.51471L1.94301 6.51508H1.94288H1.94282H1.94277H1.94272H1.94267C1.6423 6.51627 1.34152 6.51745 1.04125 6.51378C0.776562 6.51534 0.54625 6.28346 0.539062 6.02065V5.98315ZM15.0065 5.49432C14.7446 5.50182 14.5184 5.73901 14.5237 6.0012C14.5152 6.26557 14.7443 6.50714 15.009 6.51276C15.1759 6.51724 15.3427 6.51648 15.5097 6.51573C15.6341 6.51516 15.7585 6.5146 15.883 6.5162C16.0218 6.51745 16.1718 6.51839 16.2924 6.43932C16.439 6.35214 16.5299 6.18932 16.539 6.02026V5.98151C16.5274 5.80464 16.4258 5.63526 16.2671 5.55307C16.153 5.48882 16.02 5.48963 15.8923 5.49041L15.8509 5.49057C15.7328 5.49215 15.6147 5.49158 15.4966 5.49101H15.4966H15.4966H15.4966H15.4965C15.3331 5.49022 15.1697 5.48943 15.0065 5.49432ZM0.807813 7.55075C0.922354 7.48598 1.05609 7.48674 1.18447 7.48747L1.22469 7.48762C1.34147 7.48905 1.45831 7.48848 1.57516 7.48791H1.57517H1.57517H1.57518C1.73942 7.48711 1.90367 7.48631 2.06781 7.49106C2.33312 7.49512 2.56187 7.73668 2.55437 8.00106C2.56062 8.2645 2.3325 8.50387 2.06875 8.50856C1.90577 8.5131 1.74269 8.51236 1.57962 8.51162C1.46222 8.51109 1.34483 8.51056 1.2275 8.512L1.18231 8.51212C1.05478 8.51276 0.92212 8.51343 0.808437 8.44918C0.65 8.36606 0.549062 8.19543 0.539062 8.01825V7.982C0.54875 7.80481 0.649375 7.63387 0.807813 7.55075ZM15.0083 7.49068C14.7446 7.49599 14.5174 7.73599 14.5236 7.99881C14.5161 8.26318 14.7452 8.50412 15.0099 8.50849C15.353 8.51412 15.6964 8.51256 16.0396 8.50912C16.3033 8.51006 16.5311 8.27912 16.5389 8.01787V7.98006C16.5286 7.79474 16.4171 7.61756 16.2474 7.53912C16.1418 7.48606 16.0227 7.48677 15.9069 7.48746H15.9069C15.8877 7.48758 15.8685 7.48769 15.8496 7.48756C15.7325 7.48886 15.6153 7.48837 15.4982 7.48787C15.3349 7.48719 15.1715 7.4865 15.0083 7.49068ZM0.539062 9.98079C0.545 9.71798 0.775313 9.48548 1.04 9.4861C1.38281 9.48329 1.72625 9.48142 2.06906 9.48704C2.33406 9.49267 2.56344 9.73485 2.55437 9.99985C2.55906 10.2614 2.33281 10.4983 2.07125 10.5055C1.91076 10.5103 1.75016 10.5095 1.58952 10.5087C1.47928 10.5082 1.36901 10.5076 1.25875 10.5089C1.23673 10.5088 1.21447 10.509 1.19208 10.5092H1.19206C1.0617 10.5103 0.927216 10.5115 0.810937 10.4467C0.652187 10.3645 0.55 10.1945 0.539062 10.0174V9.98079ZM15.0393 9.48518C14.8424 9.48268 14.6505 9.60237 14.5702 9.78268C14.4608 10.008 14.5502 10.3046 14.7668 10.4311C14.8909 10.5126 15.0438 10.5109 15.187 10.5093L15.1943 10.5092C15.3135 10.5073 15.4327 10.5081 15.552 10.5088C15.7251 10.5099 15.8982 10.511 16.0711 10.5039C16.3214 10.4896 16.5286 10.2655 16.5389 10.0174V9.97924C16.5299 9.80924 16.438 9.64612 16.2905 9.55893C16.1789 9.48705 16.0418 9.48205 15.9136 9.48362C15.7772 9.48479 15.6407 9.48445 15.5042 9.48412C15.3492 9.48373 15.1942 9.48335 15.0393 9.48518Z" fill="#00408F"/>
</g>
<defs>
<clipPath id="clip0_1151_192141">
<rect width="16" height="16" fill="white" transform="translate(0.460938)"/>
</clipPath>
</defs>
</svg>
